# xmcd
#
# Track frame offsets: 
#        150
#        16801
#        33552
#        53444
#        67995
#        79163
#        97634
#        115932
#        139084
#        159120
#        177593
#        192079
#        207534
#
# Disc length: 3073 seconds
#
# Revision: 0
# Processed by: cddbd v1.5.2PL0 Copyright (c) Steve Scherf et al.
# Submitted via: ExactAudioCopyFreeDBPlugin 1.0
#
DISCID=9f0bff0d
DTITLE=Al Basile - Mid-Century Moderm
DYEAR=2016
DGENRE=Blues
TTITLE0=Keep Your ove, Where's My Money
TTITLE1=Like You Or Despise You
TTITLE2=Midnight Blue Persuasion
TTITLE3=Tickle My Mule
TTITLE4=I've Got To Have Meat (With Every Meal)
TTITLE5=Like A Woman, Like A Man
TTITLE6=Blank Dog
TTITLE7=Carry These Blues
TTITLE8=No Truth To The Rumor
TTITLE9=Listen To The Elders
TTITLE10=Night Crossing
TTITLE11=Big Trees Falling
TTITLE12=Lie Under The House With Me
EXTD=
EXTT0=
EXTT1=
EXTT2=
EXTT3=
EXTT4=
EXTT5=
EXTT6=
EXTT7=
EXTT8=
EXTT9=
EXTT10=
EXTT11=
EXTT12=
PLAYORDER=
